<svg width="70" height="70" viewBox="0 0 70 70" fill="none" xmlns="http://www.w3.org/2000/svg">
<path d="M20.3584 27.8071C20.1552 28.0176 19.7487 28.0176 19.5454 28.2279C10.1953 33.9081 6.33337 53.2626 6.33337 53.2626L33.3672 68.4098C33.3672 68.4098 36.8227 53.0523 40.4814 46.5306C43.1238 41.692 45.3596 42.3231 47.3923 39.3779C48.4086 38.1156 49.425 35.8015 50.4412 33.4873" stroke="#181817" stroke-width="2" stroke-miterlimit="10" stroke-linecap="round" stroke-linejoin="round"/>
<path d="M34.3835 68.62L52.8804 66.937L59.3847 41.9023C63.8565 24.6514 65.8891 18.9712 58.1652 15.8156C47.3923 11.6081 37.4324 7.40056 33.1639 5.50717C31.3345 4.66567 29.302 4.66567 27.4725 5.2968C22.3911 7.40056 19.1388 13.2911 17.1062 18.1297C15.6834 21.7061 17.1062 26.124 20.7649 27.5966L34.5868 34.1184C38.0423 35.8013 42.3107 34.3287 43.9368 30.7523C45.7661 26.5448 50.6444 16.8676 59.588 16.6571" stroke="#181817" stroke-width="2" stroke-miterlimit="10" stroke-linecap="round" stroke-linejoin="round"/>
<path d="M39.8715 6.76931L40.278 5.0863C40.8879 2.98254 42.9204 1.93066 44.9531 2.56178L50.6444 4.66555C52.6771 5.29668 53.6933 7.61082 52.8803 9.5042L52.2705 11.8183" stroke="#181817" stroke-width="2" stroke-miterlimit="10" stroke-linecap="round" stroke-linejoin="round"/>
<path d="M16.4965 40.8503C16.4965 40.8503 24.4236 46.5306 32.3508 49.2654" stroke="#181817" stroke-width="2" stroke-miterlimit="10" stroke-linecap="round" stroke-linejoin="round"/>
<path d="M29.0986 28.6487L27.2693 33.908" stroke="#181817" stroke-width="2" stroke-miterlimit="10" stroke-linecap="round" stroke-linejoin="round"/>
</svg>
