<svg width="70" height="70" viewBox="0 0 70 70" fill="none" xmlns="http://www.w3.org/2000/svg">
<path d="M62.9647 15.6001L54.7118 33.8241L68.3765 47.1521L50.3824 49.8721L47.5412 67.6881L34.0118 53.9521L19.4 67.2801L21.5647 48.3761L3.57062 42.6641L18.1824 32.3281L10.4706 16.0081L28.7353 19.1361L37.3941 3.36011L45.3765 19.6801L62.9647 15.6001Z" stroke="#181817" stroke-width="2" stroke-miterlimit="10" stroke-linecap="round" stroke-linejoin="round"/>
<path d="M33.7696 43.593C32.5675 43.8688 31.3557 43.9501 30.1343 43.837C29.2897 43.7551 28.5304 43.5865 27.8565 43.3311C27.3675 43.1458 27.1532 42.5964 27.3106 42.0958C27.5233 41.4195 28.3167 41.1135 28.9934 41.3171C29.3788 41.433 29.7946 41.521 30.2408 41.5811C31.2275 41.7138 32.2325 41.6628 33.256 41.428C34.5555 41.1299 35.4923 40.6244 36.0662 39.9113C36.6401 39.1983 36.8227 38.3784 36.6138 37.4516C36.4709 36.8176 36.1919 36.3002 35.777 35.8994C35.3621 35.4987 34.7454 35.264 33.9269 35.1953C33.121 35.1066 32.0602 35.2131 30.7443 35.515L27.9482 36.1564C27.3711 36.2887 26.8079 35.8931 26.7364 35.3052L25.7597 27.2708L34.3247 25.3061C34.9101 25.1718 35.4917 25.5379 35.6238 26.1238C35.7559 26.7097 35.3883 27.2935 34.8029 27.4278L27.1395 29.1858L28.1372 27.7001L29.0192 34.9104L27.4883 34.0304L30.7778 33.2758C32.4835 32.8845 33.9057 32.7891 35.0443 32.9896C36.1829 33.1901 37.0757 33.6266 37.7227 34.2989C38.366 34.955 38.8013 35.7871 39.0285 36.7951C39.2484 37.7707 39.2144 38.7189 38.9265 39.6399C38.635 40.5447 38.065 41.3509 37.2165 42.0585C36.3806 42.7461 35.2316 43.2576 33.7696 43.593Z" fill="#181817"/>
<path d="M47.4118 36.8984C46.8466 37.028 46.285 36.6745 46.1575 36.1088L44.2116 27.4754C44.0841 26.9097 44.4389 26.346 45.0041 26.2163C45.5693 26.0867 46.1309 26.4402 46.2584 27.0059L48.2043 35.6393C48.3318 36.205 47.977 36.7687 47.4118 36.8984ZM41.9321 33.5642C41.4005 33.6861 40.8724 33.3537 40.7525 32.8216C40.6325 32.2896 40.9663 31.7594 41.4978 31.6375L50.4893 29.5749C51.0209 29.453 51.549 29.7854 51.6689 30.3175C51.7888 30.8495 51.4551 31.3797 50.9236 31.5016L41.9321 33.5642Z" fill="#181817"/>
</svg>
