<svg width="70" height="70" viewBox="0 0 70 70" fill="none" xmlns="http://www.w3.org/2000/svg">
<path d="M32.9294 49.7231C32.0235 50.3577 30.7294 50.8654 29.1765 51.2462C29.8235 51.2462 30.4706 51.3731 31.1176 51.6269C36.2941 53.15 36.4235 56.8308 32.2823 57.4654C31.1176 57.7192 30.0823 57.0846 28.6588 56.8308C29.047 56.9577 29.3059 57.0846 29.6941 57.2115C35.647 59.3692 31.6353 64.1923 26.5882 61.6539C21.9294 59.3692 20.247 61.2731 20.247 61.2731C20.247 61.2731 17.4 62.7962 14.9412 66.7308" stroke="#181817" stroke-width="2" stroke-miterlimit="10" stroke-linecap="round" stroke-linejoin="round"/>
<path d="M4.45886 55.9424C4.45886 55.9424 7.30592 51.8809 14.4236 48.0732C18.3059 45.5347 19.4706 42.6155 19.9882 39.9501C20.6353 36.777 26.5883 37.1578 24.9059 42.7424C24.6471 43.8847 24 45.027 23.6118 45.9155C24.1294 45.7886 26.3294 45.2809 26.9765 45.154C29.4353 44.6463 31.7647 44.6463 33.0588 45.5347" stroke="#181817" stroke-width="2" stroke-miterlimit="10" stroke-linecap="round" stroke-linejoin="round"/>
<path d="M46.0001 19.3885C47.1648 17.9923 47.9413 11.5192 53.506 3.26923" stroke="#181817" stroke-width="2" stroke-miterlimit="10" stroke-linecap="round" stroke-linejoin="round"/>
<path d="M37.7178 38.9346C34.8707 40.5846 31.8941 41.0923 31.1177 38.8077C30.0824 35.6346 32.9296 33.2231 37.7178 26.8769C40.6943 22.9423 42.7647 21.1654 46 19.5154" stroke="#181817" stroke-width="2" stroke-miterlimit="10" stroke-linecap="round" stroke-linejoin="round"/>
<path d="M65.8001 12.2807C61.5295 18.2461 59.3295 23.0692 59.3295 23.0692" stroke="#181817" stroke-width="2" stroke-miterlimit="10" stroke-linecap="round" stroke-linejoin="round"/>
<path d="M40.3061 34.8731C37.3296 40.3308 29.9531 48.0731 33.7061 50.8654C36.812 53.15 40.5649 49.2154 42.8943 46.2962" stroke="#181817" stroke-width="2" stroke-miterlimit="10" stroke-linecap="round" stroke-linejoin="round"/>
<path d="M59.3294 23.0692C63.0824 27.3846 62.953 36.2692 63.0824 42.1077C63.2118 46.8039 57.3883 50.1039 55.4471 41.7269L54.9294 38.4269" stroke="#181817" stroke-width="2" stroke-miterlimit="10" stroke-linecap="round" stroke-linejoin="round"/>
<path d="M56.0941 35.5077C55.5765 36.3962 54.153 40.3308 52.8588 43.8846C50.1412 51.1192 46.9059 55.4346 44.3177 54.5462C37.5883 52.3885 45.2236 43.3769 47.0353 37.9192" stroke="#181817" stroke-width="2" stroke-miterlimit="10" stroke-linecap="round" stroke-linejoin="round"/>
</svg>
