<svg width="65" height="66" viewBox="0 0 65 66" fill="none" xmlns="http://www.w3.org/2000/svg">
<path fill-rule="evenodd" clip-rule="evenodd" d="M32.5284 0.0245165C28.2569 0.0239798 24.0271 0.864854 20.0806 2.49912C16.1341 4.13338 12.5482 6.52903 9.52755 9.54926C6.50694 12.5695 4.11084 16.1551 2.47608 20.1014C0.84132 24.0478 -7.62939e-05 28.2774 -7.62939e-05 32.549C0.000514984 33.9823 0.0946922 35.4141 0.281853 36.8351C4.1368 36.8999 7.98571 36.5049 11.7471 35.6584C20.2255 33.8197 29.1452 29.889 35.503 24.0624C37.734 22.0194 39.589 22.3871 41.2234 24.1563C42.7924 25.8724 43.8916 29.1576 44.9743 32.4141C45.8978 35.1885 46.8171 37.9465 47.8345 39.1519C47.8675 39.2114 47.914 39.2624 47.9702 39.3008C48.0264 39.3392 48.0908 39.364 48.1583 39.3731C48.2257 39.3823 48.2944 39.3755 48.3588 39.3534C48.4232 39.3313 48.4815 39.2945 48.5292 39.2459C48.7049 39.0947 48.758 35.7605 48.8193 31.8298C48.9337 24.8019 49.0685 16.156 52.5906 14.4235C54.985 13.2427 58.5357 15.4981 63.9619 24.1073C62.1071 17.1923 58.0232 11.0821 52.3432 6.72364C46.6632 2.36521 39.7043 0.00191042 32.5448 0L32.5284 0.0245165Z" fill="#33C0CE"/>
<path fill-rule="evenodd" clip-rule="evenodd" d="M12.1809 38.911C21.1701 36.966 30.6455 32.782 37.4732 26.5059C37.9144 26.0973 38.2413 26.13 38.4946 26.4079C39.5897 27.605 40.5703 30.551 41.5428 33.4684C42.5725 36.5615 43.5858 39.626 44.9955 41.2972C46.5154 43.1032 48.2642 43.5853 50.3726 41.8038C51.7087 40.6843 51.7741 36.6514 51.8476 31.8953C51.9457 25.7664 52.0642 18.2522 53.7681 17.4146C55.2063 16.7077 58.3689 20.3075 64.7798 32.5327V32.5613C64.7709 40.5202 61.8444 48.1996 56.5544 54.1459C51.2644 60.0922 43.9778 63.8927 36.0742 64.8281C28.1705 65.7634 20.1981 63.7687 13.6662 59.2214C7.13436 54.6742 2.49623 47.89 0.629837 40.1531C4.51472 40.176 8.38972 39.7593 12.1809 38.911ZM34.1512 48.0186C34.7941 48.0194 35.4227 47.8295 35.9575 47.4729C36.4923 47.1163 36.9093 46.609 37.1556 46.0152C37.402 45.4215 37.4667 44.768 37.3415 44.1376C37.2163 43.507 36.9068 42.9279 36.4523 42.4733C35.9977 42.0188 35.4186 41.7093 34.7881 41.5841C34.1576 41.4589 33.5041 41.5236 32.9104 41.77C32.3166 42.0163 31.8093 42.4333 31.4527 42.9681C31.0961 43.5029 30.9062 44.1315 30.907 44.7744C30.9081 45.6345 31.2502 46.459 31.8584 47.0672C32.4666 47.6754 33.2911 48.0175 34.1512 48.0186ZM15.3108 50.2986C15.9532 50.2986 16.5813 50.1081 17.1155 49.7512C17.6497 49.3942 18.066 48.8869 18.3119 48.2933C18.5577 47.6998 18.6221 47.0466 18.4967 46.4165C18.3714 45.7864 18.062 45.2076 17.6077 44.7533C17.1534 44.299 16.5746 43.9896 15.9445 43.8643C15.3144 43.739 14.6612 43.8033 14.0677 44.0492C13.4741 44.295 12.9668 44.7114 12.6099 45.2456C12.2529 45.7797 12.0624 46.4078 12.0624 47.0502C12.0619 47.477 12.1455 47.8996 12.3086 48.294C12.4716 48.6883 12.7109 49.0466 13.0126 49.3484C13.3144 49.6501 13.6727 49.8894 14.067 50.0524C14.4614 50.2155 14.884 50.2991 15.3108 50.2986Z" fill="#33C0CE"/>
</svg>
