<svg width="70" height="70" viewBox="0 0 70 70" fill="none" xmlns="http://www.w3.org/2000/svg">
<path d="M47.8 35.5333C49.5333 35.3999 51.1333 34.9999 52.7333 34.5999C57.2667 38.3333 65.5334 37.6666 65.5334 37.6666C65.5334 37.6666 61.5334 34.0666 60.6 30.7333C64.6 27.6666 67.1333 23.6666 67.1333 19.1333C67.1333 9.79992 57 2.33325 44.4667 2.33325C31.9333 2.33325 21.9333 9.79992 21.9333 18.9999C21.9333 22.1999 23.1333 25.2666 25.4 27.7999" stroke="#181817" stroke-width="2" stroke-miterlimit="10" stroke-linecap="round" stroke-linejoin="round"/>
<path d="M50.8667 46.6C51.6667 34.7333 41.8 28.4667 27.6667 28.0667C15.2667 27.9333 4.20005 33.8 3.53338 43.5333C3.00005 51 9.40005 57.9333 17.6667 61C17.8 64.2 15.9334 67.1333 15.9334 67.1333C15.9334 67.1333 22.8667 67.8 27.4 62.6C39 62.6 50.2 57.4 50.8667 46.6Z" stroke="#181817" stroke-width="2" stroke-miterlimit="10" stroke-linecap="round" stroke-linejoin="round"/>
<path d="M32.0666 52.7333C30.3333 56.4666 24.3333 58.8666 20.7333 52.4666C17.1333 46.0666 26.0666 52.2 36.8666 44.2" stroke="#181817" stroke-width="2" stroke-miterlimit="10" stroke-linecap="round" stroke-linejoin="round"/>
<path d="M10.2001 47.2667C10.2001 47.2667 10.8667 42.4667 15.6667 41.1334C20.4667 39.8 23.9334 43.2667 23.9334 43.2667" stroke="#181817" stroke-width="2" stroke-miterlimit="10" stroke-linecap="round" stroke-linejoin="round"/>
<path d="M28.2 41.6666C28.2 41.6666 28.8666 36.8666 33.6666 35.5333C38.4666 34.1999 41.9333 37.6666 41.9333 37.6666" stroke="#181817" stroke-width="2" stroke-miterlimit="10" stroke-linecap="round" stroke-linejoin="round"/>
<path d="M48.6 26.4667C53.1334 30.8667 59.1334 27.5334 58.8667 21.2667C58.4667 13.2667 47 26.7334 38.8667 23.2667" stroke="#181817" stroke-width="2" stroke-miterlimit="10" stroke-linecap="round" stroke-linejoin="round"/>
<path d="M39.4 15.6666C39.4 15.6666 35.6667 12.7333 31.5333 14.4666C27.4 16.1999 27.5333 20.1999 27.5333 20.1999" stroke="#181817" stroke-width="2" stroke-miterlimit="10" stroke-linecap="round" stroke-linejoin="round"/>
<path d="M56.6 11.8C56.6 11.8 53.1334 8.46662 48.7334 9.66662C44.4668 10.8666 44.0667 14.9999 44.0667 14.9999" stroke="#181817" stroke-width="2" stroke-miterlimit="10" stroke-linecap="round" stroke-linejoin="round"/>
</svg>
